<?xml version="1.0" encoding="UTF-8"?><svg xmlns="http://www.w3.org/2000/svg" viewBox="0 0 200 120"><defs><linearGradient id="bg" x1="0" y1="0" x2="1" y2="1"><stop stop-color="#07111f"/><stop offset="1" stop-color="#0f2742"/></linearGradient><linearGradient id="g" x1="0" y1="0" x2="1" y2="1"><stop stop-color="#245db0"/><stop offset="1" stop-color="#8ec5ff"/></linearGradient><radialGradient id="glow"><stop stop-color="#8ec5ff" stop-opacity=".38"/><stop offset="1" stop-color="#8ec5ff" stop-opacity="0"/></radialGradient></defs><rect width="200" height="120" rx="18" fill="url(#bg)"/><circle cx="160" cy="18" r="75" fill="url(#glow)"/><path d="M0 92 200 35V120H0Z" fill="#fff" opacity=".025"/><path d="M55 116V42h36v74M91 116V28h54v88" fill="none" stroke="url(#g)" stroke-width="7"/><path d="M66 55h12m-12 18h12m-12 18h12m25-48h12m-12 18h12m12-18h12m-12 18h12m-36 18h12m12 0h12" stroke="#fff" stroke-width="5" opacity=".75"/><text x="14" y="18" fill="#8ec5ff" font-family="Arial,sans-serif" font-size="7" font-weight="700" letter-spacing="1.5">TECHNOLOGY ASSET</text><text x="14" y="111" fill="#fff" opacity=".42" font-family="Arial,sans-serif" font-size="6">STRATEGIC PRODUCT PORTFOLIO</text></svg>