<svg xmlns="http://www.w3.org/2000/svg" viewBox="0 0 1200 820"><defs><linearGradient id="b" y2="1"><stop stop-color="#082846"/><stop offset=".62" stop-color="#2385b3"/><stop offset="1" stop-color="#dcecf3"/></linearGradient></defs><rect width="1200" height="820" rx="30" fill="#f4f8fb"/><rect x="35" y="35" width="1130" height="480" rx="25" fill="url(#b)"/><circle cx="930" cy="125" r="70" fill="#fff" opacity=".55"/><path d="M35 410q250-130 500 0t630-40v145H35Z" fill="#173e58"/><rect x="540" y="140" width="420" height="300" rx="20" fill="#102f49" stroke="#b1ecff" stroke-width="6"/><path d="M580 370l80-90 65 45 80-110 95 75" fill="none" stroke="#70dcff" stroke-width="10"/><circle cx="660" cy="280" r="10" fill="#fff"/><circle cx="725" cy="325" r="10" fill="#fff"/><circle cx="805" cy="215" r="10" fill="#fff"/><g fill="#1c5876"><circle cx="300" cy="470" r="45"/><circle cx="430" cy="470" r="45"/><circle cx="1040" cy="470" r="45"/></g><rect x="35" y="515" width="1130" height="270" rx="25" fill="#fff"/><text x="70" y="565" font-family="Arial" font-size="31" font-weight="700" fill="#092b4b">Enterprise Intelligence</text><text x="70" y="600" font-family="Arial" font-size="16" font-weight="700" fill="#1776aa">Connect data. See the bigger picture.</text><text x="70" y="650" font-family="Arial" font-size="16" fill="#18364f">●  Unify information across your organisation</text><text x="430" y="650" font-family="Arial" font-size="16" fill="#18364f">●  Turn data into actionable insights</text><text x="790" y="650" font-family="Arial" font-size="16" fill="#18364f">●  Support faster decisions</text><rect x="70" y="705" width="220" height="48" rx="12" fill="#082f55"/><text x="180" y="736" text-anchor="middle" font-family="Arial" font-size="16" font-weight="700" fill="#fff">Learn More</text><rect x="310" y="705" width="220" height="48" rx="12" fill="#e7eef8"/><text x="420" y="736" text-anchor="middle" font-family="Arial" font-size="16" font-weight="700" fill="#082f55">View Demo</text><text x="1115" y="565" text-anchor="end" font-family="Arial" font-size="12" font-weight="700" fill="#7c91a5">ENTERPRISE INTELLIGENCE</text></svg>