<svg xmlns="http://www.w3.org/2000/svg" viewBox="0 0 1200 820" role="img" aria-label="FieldFlow Audit product image"><defs><linearGradient id="page" x1="0" y1="0" x2="0" y2="1"><stop stop-color="#ffffff"/><stop offset="1" stop-color="#eef5fb"/></linearGradient></defs><rect width="1200" height="820" rx="28" fill="url(#page)"/><rect x="28" y="28" width="1144" height="764" rx="24" fill="#fff" stroke="#d8e4ee" stroke-width="3"/><g transform="translate(45 45) scale(1.11 .79)"><defs><linearGradient id="sky" x1="0" y1="0" x2="1" y2="1"><stop stop-color="#082846"/><stop offset=".55" stop-color="#1979ad"/><stop offset="1" stop-color="#83d2f0"/></linearGradient><filter id="sh"><feDropShadow dx="0" dy="8" stdDeviation="10" flood-opacity=".28"/></filter></defs><rect width="1000" height="650" fill="url(#sky)"/><circle cx="820" cy="110" r="72" fill="#eefaff" opacity=".6"/><path d="M0 420Q230 300 440 405T1000 350V650H0Z" fill="#173c56"/><g filter="url(#sh)"><rect x="600" y="180" width="270" height="310" rx="22" fill="#0b2237" stroke="#e0f6ff" stroke-width="7"/><rect x="625" y="215" width="220" height="125" rx="10" fill="#173e5a"/><path d="M640 310l45-40 45 18 50-58" fill="none" stroke="#74ddff" stroke-width="8"/><rect x="625" y="365" width="180" height="15" rx="7" fill="#5bc7eb"/><rect x="625" y="400" width="140" height="15" rx="7" fill="#8ae0b1"/></g></g><rect x="45" y="558" width="1110" height="234" rx="20" fill="#fff"/><text x="75" y="603" font-family="Arial,sans-serif" font-size="31" font-weight="700" fill="#092b4b">FieldFlow Audit</text><text x="75" y="635" font-family="Arial,sans-serif" font-size="16" font-weight="700" fill="#1776aa">Turn field data into clear insights.</text><g font-family="Arial,sans-serif" font-size="16" fill="#18364f"><circle cx="82" cy="676" r="8" fill="#123f68"/><text x="105" y="682">Capture job data and records</text><circle cx="430" cy="676" r="8" fill="#123f68"/><text x="453" y="682">Analyse and validate information</text><circle cx="790" cy="676" r="8" fill="#123f68"/><text x="813" y="682">Generate clear audit reports</text></g><rect x="75" y="713" width="230" height="48" rx="12" fill="#082f55"/><text x="190" y="744" text-anchor="middle" font-family="Arial,sans-serif" font-size="16" font-weight="700" fill="#fff">Learn More</text><rect x="320" y="713" width="230" height="48" rx="12" fill="#e7eef8"/><text x="435" y="744" text-anchor="middle" font-family="Arial,sans-serif" font-size="16" font-weight="700" fill="#082f55">View Demo</text><text x="1115" y="601" text-anchor="end" font-family="Arial,sans-serif" font-size="12" font-weight="700" fill="#7c91a5">FIELD SERVICE</text></svg>