<svg xmlns="http://www.w3.org/2000/svg" viewBox="0 0 1200 820"><defs><linearGradient id="b" y2="1"><stop stop-color="#082846"/><stop offset=".62" stop-color="#2385b3"/><stop offset="1" stop-color="#dcecf3"/></linearGradient></defs><rect width="1200" height="820" rx="30" fill="#f4f8fb"/><rect x="35" y="35" width="1130" height="480" rx="25" fill="url(#b)"/><circle cx="940" cy="125" r="70" fill="#fff" opacity=".55"/><path d="M35 410q250-130 500 0t630-40v145H35Z" fill="#173e58"/><rect x="570" y="125" width="340" height="370" rx="20" fill="#f4fbff" stroke="#214967" stroke-width="6"/><path d="M620 205h220M620 280h220M620 355h220M620 430h165" stroke="#214967" stroke-width="15" stroke-linecap="round"/><path d="M615 205l14 14 30-34M615 280l14 14 30-34M615 355l14 14 30-34M615 430l14 14 30-34" stroke="#21b878" stroke-width="9" fill="none"/><rect x="35" y="515" width="1130" height="270" rx="25" fill="#fff"/><text x="70" y="565" font-family="Arial" font-size="31" font-weight="700" fill="#092b4b">Technical Evidence Sufficiency Engine</text><text x="70" y="600" font-family="Arial" font-size="16" font-weight="700" fill="#1776aa">Check the evidence. Make confident decisions.</text><text x="70" y="650" font-family="Arial" font-size="16" fill="#18364f">●  Analyse evidence completeness</text><text x="430" y="650" font-family="Arial" font-size="16" fill="#18364f">●  Identify gaps and risks</text><text x="790" y="650" font-family="Arial" font-size="16" fill="#18364f">●  Support clear, defensible decisions</text><rect x="70" y="705" width="220" height="48" rx="12" fill="#082f55"/><text x="180" y="736" text-anchor="middle" font-family="Arial" font-size="16" font-weight="700" fill="#fff">Learn More</text><rect x="310" y="705" width="220" height="48" rx="12" fill="#e7eef8"/><text x="420" y="736" text-anchor="middle" font-family="Arial" font-size="16" font-weight="700" fill="#082f55">View Demo</text><text x="1115" y="565" text-anchor="end" font-family="Arial" font-size="12" font-weight="700" fill="#7c91a5">EVIDENCE ASSURANCE</text></svg>